<?xml version="1.0" encoding="utf-8"?>
<!-- Generator: Adobe Illustrator 19.0.0, SVG Export Plug-In . SVG Version: 6.00 Build 0)  -->
<svg version="1.1" id="Calque_1" xmlns="http://www.w3.org/2000/svg" xmlns:xlink="http://www.w3.org/1999/xlink" x="0px" y="0px"
	 viewBox="-429 218 100 100" style="enable-background:new -429 218 100 100;" xml:space="preserve">
<title>Artboard 1 copy 26</title>
<path d="M-379,218c-27.6,0-50,22.4-50,50s22.4,50,50,50s50-22.4,50-50S-351.4,218-379,218z M-395.6,271.7c0.8-0.8,2-0.8,2.8,0
	c0,0,0,0,0,0l11.8,11.8v-44.1c0-1.1,0.9-2,2-2s2,0.9,2,2v44.1l11.8-11.8c0.8-0.8,2-0.8,2.8,0c0.8,0.8,0.8,2,0,2.8l-15.2,15.2
	c-0.1,0.1-0.2,0.2-0.3,0.3l-0.1,0l-0.2,0.1l-0.2,0.1l-0.2,0c-0.3,0.1-0.5,0.1-0.8,0l-0.2,0l-0.2-0.1l-0.3-0.1l-0.1-0.1
	c-0.1-0.1-0.2-0.2-0.3-0.3l-15.1-15.1C-396.4,273.7-396.4,272.5-395.6,271.7C-395.6,271.7-395.6,271.7-395.6,271.7z M-358,298.6h-42
	c-1.1,0-2-0.9-2-2c0-1.1,0.9-2,2-2h42c1.1,0,2,0.9,2,2C-356,297.7-356.9,298.6-358,298.6z"/>
</svg>
