<?xml version="1.0" encoding="utf-8"?>
<!-- Generator: Adobe Illustrator 19.0.0, SVG Export Plug-In . SVG Version: 6.00 Build 0)  -->
<svg version="1.1" id="Calque_1" xmlns="http://www.w3.org/2000/svg" xmlns:xlink="http://www.w3.org/1999/xlink" x="0px" y="0px"
	 viewBox="-429 218 100 99.8" style="enable-background:new -429 218 100 99.8;" xml:space="preserve">
<title>Artboard 1 copy 25</title>
<path d="M-358,294.6h-42c-1.1,0-2,0.9-2,2c0,1.1,0.9,2,2,2h42c1.1,0,2-0.9,2-2C-356,295.5-356.9,294.6-358,294.6z"/>
<path d="M-380.4,289.7c0.1,0.1,0.2,0.2,0.3,0.3l0.1,0l0.2,0.1l0.2,0.1l0.2,0c0.3,0.1,0.5,0.1,0.8,0l0.2,0l0.2-0.1l0.3-0.1l0.1-0.1
	c0.1-0.1,0.2-0.2,0.3-0.3l15.1-15.1c0.8-0.8,0.8-2,0-2.8c-0.8-0.8-2-0.8-2.8,0l0,0l-11.8,11.8v-44.1c0-1.1-0.9-2-2-2s-2,0.9-2,2
	v44.1l-11.8-11.8c-0.8-0.8-2-0.8-2.8,0c-0.8,0.8-0.8,2,0,2.8L-380.4,289.7z"/>
<path d="M-343.8,232.8c-19.4-19.4-50.9-19.4-70.4,0s-19.4,50.9,0,70.4c19.4,19.4,50.9,19.4,70.3,0
	C-324.4,283.8-324.4,252.3-343.8,232.8z M-346.6,300.4c-17.9,17.9-46.9,17.9-64.8,0c-17.9-17.9-17.9-46.9,0-64.8
	c17.9-17.9,46.9-17.9,64.8,0C-328.7,253.5-328.7,282.5-346.6,300.4z"/>
</svg>
