<?xml version="1.0" encoding="utf-8"?>
<!-- Generator: Adobe Illustrator 19.0.0, SVG Export Plug-In . SVG Version: 6.00 Build 0)  -->
<svg version="1.1" id="Calque_1" xmlns="http://www.w3.org/2000/svg" xmlns:xlink="http://www.w3.org/1999/xlink" x="0px" y="0px"
	 viewBox="-247 371.1 100 99.8" style="enable-background:new -247 371.1 100 99.8;" xml:space="preserve">
<title>Artboard 1 copy 25</title>
<path d="M-198.4,446.7c0.1,0.1,0.2,0.2,0.3,0.3h0.1l0.2,0.1l0.2,0.1h0.2c0.3,0.1,0.5,0.1,0.8,0h0.2l0.2-0.1l0.3-0.1l0.1-0.1
	c0.1-0.1,0.2-0.2,0.3-0.3l15.1-15.1c0.8-0.8,0.8-2,0-2.8s-2-0.8-2.8,0l0,0l-11.8,11.8v-44.1c0-1.1-0.9-2-2-2s-2,0.9-2,2v44.1
	l-11.8-11.8c-0.8-0.8-2-0.8-2.8,0s-0.8,2,0,2.8L-198.4,446.7z"/>
<path d="M-161.8,385.8c-19.4-19.4-50.9-19.4-70.4,0s-19.4,50.9,0,70.4c19.4,19.4,50.9,19.4,70.3,0
	C-142.4,436.8-142.4,405.3-161.8,385.8z M-164.6,453.4c-17.9,17.9-46.9,17.9-64.8,0c-17.9-17.9-17.9-46.9,0-64.8s46.9-17.9,64.8,0
	C-146.7,406.5-146.7,435.5-164.6,453.4z"/>
</svg>
