<?xml version="1.0" encoding="utf-8"?>
<!-- Generator: Adobe Illustrator 19.0.0, SVG Export Plug-In . SVG Version: 6.00 Build 0)  -->
<svg version="1.1" id="Calque_1" xmlns="http://www.w3.org/2000/svg" xmlns:xlink="http://www.w3.org/1999/xlink" x="0px" y="0px"
	 viewBox="0 0 330.7 145.9" style="enable-background:new 0 0 330.7 145.9;" xml:space="preserve">
<path id="XMLID_11_" d="M100.4,0l-3.5,14.2l-1.2,4.7C95.7,10.2,86.1,0,76.8,0H100.4z"/>
<path id="XMLID_10_" d="M147.6,141.7l3.5-14.2l1.2-4.7c0,8.7,9.6,18.9,18.9,18.9H147.6z"/>
<g id="XMLID_7_">
	<polygon id="XMLID_9_" points="73.1,109 73.1,109 65,141.7 41.3,141.7 0,0 41.3,0 	"/>
	<polygon id="XMLID_8_" points="238.5,109 230.3,141.7 206.7,141.7 174.9,32.7 174.9,32.7 183.1,0 206.7,0 	"/>
</g>
<polygon id="XMLID_6_" points="257.6,32.7 257.6,32.7 265.7,0 289.4,0 330.7,141.7 289.4,141.7 "/>
<g id="XMLID_32_">
	<path id="XMLID_33_" d="M119.6,0v3.3h-8.5v2.8h8v3.3h-8v3.2h8.5V16h-12.2V0H119.6z"/>
	<path id="XMLID_35_" d="M133.5,16h-3.6v-1.6c-0.2,0.3-0.4,0.6-0.7,0.8c-0.3,0.2-0.6,0.4-0.9,0.6s-0.7,0.3-1,0.3s-0.7,0.1-1,0.1
		c-0.8,0-1.5-0.1-2.1-0.4c-0.6-0.3-1.2-0.7-1.7-1.2s-0.8-1.2-1.1-1.9S121,11,121,10s0.1-1.8,0.4-2.6s0.6-1.4,1.1-1.9
		c0.5-0.5,1-0.9,1.7-1.2c0.6-0.3,1.3-0.4,2.1-0.4c0.3,0,0.7,0,1,0.1c0.3,0.1,0.7,0.2,1,0.3c0.3,0.2,0.6,0.3,0.9,0.6
		c0.3,0.2,0.5,0.5,0.7,0.8V0h3.6V16z M126.4,6.9c-0.3,0.1-0.6,0.4-0.8,0.6c-0.2,0.3-0.4,0.6-0.6,1.1c-0.1,0.4-0.2,0.9-0.2,1.5
		c0,0.6,0.1,1,0.2,1.5c0.1,0.4,0.3,0.8,0.6,1.1c0.2,0.3,0.5,0.5,0.8,0.6c0.3,0.1,0.7,0.2,1,0.2c0.4,0,0.7-0.1,1-0.2
		c0.3-0.1,0.6-0.3,0.8-0.6s0.4-0.6,0.6-1c0.1-0.4,0.2-0.9,0.2-1.6s-0.1-1.1-0.2-1.6c-0.1-0.4-0.3-0.8-0.6-1
		c-0.2-0.3-0.5-0.5-0.8-0.6c-0.3-0.1-0.7-0.2-1-0.2C127.1,6.7,126.7,6.7,126.4,6.9z"/>
	<path id="XMLID_38_" d="M139.7,2.9h-3.6V0h3.6V2.9z M139.8,16h-3.7V4.1h3.7V16z"/>
	<path id="XMLID_41_" d="M146.6,0.9v3.2h2.6v2.6h-2.6V12c0,0.6,0.1,0.9,0.3,1.1c0.2,0.2,0.6,0.3,1.2,0.3h1V16h-2.3
		c-0.7,0-1.3,0-1.8-0.1s-0.9-0.3-1.2-0.5c-0.3-0.2-0.5-0.6-0.7-1c-0.1-0.4-0.2-1-0.2-1.7V6.7h-1.9V4.1h1.9V0.9H146.6z"/>
	<path id="XMLID_43_" d="M159,4.1c0.8,0.2,1.4,0.6,2,1.1c0.6,0.5,1,1.2,1.4,1.9c0.3,0.8,0.5,1.7,0.5,2.8c0,1.1-0.2,2-0.5,2.8
		c-0.3,0.8-0.8,1.4-1.4,1.9c-0.6,0.5-1.2,0.9-2,1.1c-0.8,0.2-1.5,0.4-2.4,0.4s-1.6-0.1-2.4-0.4c-0.8-0.2-1.4-0.6-2-1.1
		c-0.6-0.5-1-1.2-1.4-1.9c-0.3-0.8-0.5-1.7-0.5-2.8c0-1.1,0.2-2,0.5-2.8c0.3-0.8,0.8-1.4,1.4-1.9c0.6-0.5,1.2-0.9,2-1.1
		c0.8-0.3,1.5-0.4,2.4-0.4S158.2,3.9,159,4.1z M155.6,6.8c-0.3,0.1-0.6,0.3-0.8,0.6c-0.2,0.3-0.4,0.6-0.6,1.1
		c-0.1,0.4-0.2,1-0.2,1.6c0,0.6,0.1,1.1,0.2,1.6c0.1,0.4,0.3,0.8,0.5,1.1c0.2,0.3,0.5,0.5,0.8,0.6c0.3,0.1,0.7,0.2,1,0.2
		c0.4,0,0.7-0.1,1-0.2c0.3-0.1,0.6-0.3,0.8-0.6s0.4-0.6,0.5-1.1c0.1-0.4,0.2-1,0.2-1.6c0-0.6-0.1-1.2-0.2-1.6
		c-0.1-0.4-0.3-0.8-0.5-1.1c-0.2-0.3-0.5-0.5-0.8-0.6s-0.6-0.2-1-0.2C156.3,6.6,156,6.6,155.6,6.8z"/>
	<path id="XMLID_46_" d="M164.4,8.6h7.8v3.1h-7.8V8.6z"/>
	<path id="XMLID_48_" d="M123.8,33.9c-0.1,0-0.3,0-0.5,0c-0.9,0-1.5,0.2-2,0.5c-0.4,0.4-0.7,1-0.7,1.9v5.9H117V30.5h3.5v2.2
		c0.3-0.7,0.7-1.3,1.2-1.7c0.5-0.4,1.2-0.6,2-0.7h0.3c0.1,0,0.2,0,0.3,0V34C124.1,34,123.9,33.9,123.8,33.9z"/>
	<path id="XMLID_50_" d="M129.5,29.3h-3.6v-2.9h3.6V29.3z M129.5,42.4h-3.7V30.5h3.7V42.4z"/>
	<path id="XMLID_53_" d="M138.8,33c-0.3-0.3-0.8-0.4-1.5-0.4c-0.6,0-1.1,0.1-1.4,0.4c-0.4,0.3-0.6,0.7-0.7,1.3h-3.4
		c0-0.6,0.2-1.1,0.5-1.6c0.3-0.5,0.7-1,1.2-1.3c0.5-0.4,1.1-0.7,1.8-0.9c0.7-0.2,1.5-0.3,2.4-0.3c0.9,0,1.6,0.1,2.3,0.3
		s1.2,0.5,1.7,0.9c0.5,0.4,0.8,0.9,1,1.5s0.3,1.4,0.3,2.3l0,2.6v1.2c0,0.4,0,0.9,0,1.3c0,0.4,0.1,0.8,0.1,1.2c0,0.4,0.1,0.7,0.1,0.9
		h-3.6l0-1.4c-0.4,0.6-1,1.1-1.7,1.3c-0.7,0.3-1.4,0.4-2.3,0.4c-0.6,0-1.1-0.1-1.6-0.2c-0.5-0.2-0.9-0.4-1.3-0.7s-0.7-0.7-0.9-1.1
		c-0.2-0.4-0.3-0.9-0.3-1.5c0-0.7,0.2-1.3,0.6-1.8s0.9-0.9,1.6-1.2c0.7-0.3,1.5-0.6,2.5-0.7c1-0.2,2-0.3,3.2-0.4v-0.5
		C139.3,33.8,139.2,33.3,138.8,33z M137.7,37.3c-0.5,0.1-1,0.2-1.3,0.3c-0.4,0.1-0.7,0.3-0.9,0.5c-0.2,0.2-0.3,0.5-0.3,0.8
		c0,0.4,0.2,0.7,0.5,0.9c0.3,0.2,0.7,0.4,1.2,0.4c0.4,0,0.7,0,1-0.1s0.6-0.2,0.8-0.5c0.2-0.2,0.4-0.5,0.5-0.9
		c0.1-0.4,0.2-0.8,0.2-1.4v-0.3C138.8,37.2,138.2,37.2,137.7,37.3z"/>
	<path id="XMLID_56_" d="M145.2,42.4v-16h3.6v16H145.2z"/>
</g>
<g id="XMLID_1_">
	<path id="XMLID_2_" d="M97.1,99.8c1.1,0.3,2.1,0.7,3,1.3s1.5,1.4,2,2.5c0.5,1,0.7,2.3,0.7,3.8c0,1.5-0.2,2.8-0.7,3.8
		c-0.5,1-1.1,1.8-2,2.5c-0.8,0.6-1.8,1.1-3,1.3c-1.1,0.3-2.4,0.4-3.7,0.4h-5.3v-16h5.3C94.7,99.4,96,99.5,97.1,99.8z M98.3,104.8
		c-0.3-0.6-0.7-1.1-1.2-1.5c-0.5-0.3-1-0.6-1.7-0.7c-0.6-0.1-1.3-0.2-2-0.2h-1.6v9.6h1.6c0.7,0,1.4-0.1,2-0.2
		c0.6-0.1,1.2-0.3,1.7-0.7c0.5-0.3,0.9-0.8,1.2-1.5c0.3-0.6,0.4-1.5,0.4-2.5C98.8,106.3,98.6,105.5,98.3,104.8z"/>
	<path id="XMLID_13_" d="M116.5,113.4c-0.4,0.5-0.9,0.9-1.4,1.2s-1.1,0.6-1.7,0.7c-0.6,0.2-1.2,0.2-1.8,0.2c-1,0-1.8-0.1-2.6-0.4
		c-0.8-0.3-1.5-0.7-2-1.2s-1-1.2-1.3-2s-0.5-1.7-0.5-2.6c0-0.9,0.2-1.8,0.5-2.6c0.3-0.8,0.8-1.4,1.4-2c0.6-0.5,1.2-0.9,2-1.2
		c0.8-0.3,1.6-0.4,2.5-0.4c1,0,1.9,0.2,2.6,0.5c0.8,0.4,1.4,0.8,2,1.5c0.5,0.6,0.9,1.4,1.2,2.3c0.3,0.9,0.4,1.8,0.3,2.9h-8.8
		c0,0.4,0.1,0.8,0.3,1.1c0.2,0.3,0.4,0.6,0.6,0.8c0.3,0.2,0.5,0.3,0.8,0.5s0.6,0.2,1,0.2c0.7,0,1.3-0.1,1.7-0.3
		c0.4-0.2,0.8-0.5,1-0.9h3.3C117.3,112.3,116.9,112.9,116.5,113.4z M109.8,106.5c-0.5,0.4-0.8,0.9-0.9,1.7h5.1
		c0-0.7-0.3-1.3-0.7-1.7c-0.5-0.4-1-0.5-1.7-0.5C110.8,105.9,110.3,106.1,109.8,106.5z"/>
	<path id="XMLID_16_" d="M127.1,106.1c-0.4-0.2-0.9-0.2-1.5-0.2c-1.3,0-1.9,0.3-1.9,0.9c0,0.3,0.1,0.5,0.3,0.7s0.6,0.3,1.1,0.4
		l2.2,0.4c1.4,0.3,2.5,0.6,3.2,1.1c0.7,0.5,1,1.3,1,2.3c0,0.7-0.1,1.2-0.4,1.8c-0.3,0.5-0.7,0.9-1.2,1.3s-1.1,0.6-1.8,0.7
		c-0.7,0.2-1.5,0.3-2.3,0.3c-0.8,0-1.5-0.1-2.2-0.3c-0.7-0.2-1.3-0.4-1.8-0.8c-0.5-0.3-0.9-0.8-1.2-1.3c-0.3-0.5-0.5-1.1-0.6-1.8
		h3.4c0.2,0.6,0.5,1,0.9,1.2c0.4,0.2,1,0.3,1.6,0.3c0.6,0,1.2-0.1,1.6-0.3c0.4-0.2,0.6-0.4,0.6-0.8c0-0.3-0.1-0.5-0.4-0.7
		c-0.3-0.2-0.8-0.3-1.4-0.4l-2.1-0.4c-1.1-0.2-2.1-0.6-2.8-1.2c-0.7-0.6-1.1-1.4-1.1-2.5c0-0.6,0.1-1.1,0.4-1.6
		c0.3-0.5,0.7-0.8,1.2-1.1c0.5-0.3,1.1-0.5,1.7-0.7c0.7-0.2,1.3-0.2,2.1-0.2c0.7,0,1.3,0.1,1.9,0.2c0.6,0.1,1.2,0.4,1.7,0.7
		c0.5,0.3,0.9,0.7,1.3,1.2c0.3,0.5,0.6,1.1,0.7,1.7h-3.4C127.8,106.5,127.5,106.2,127.1,106.1z"/>
	<path id="XMLID_18_" d="M134.4,108h7.8v3.1h-7.8V108z"/>
	<path id="XMLID_20_" d="M91.4,128.7h-3.6v-2.9h3.6V128.7z M91.4,141.7h-3.7v-11.8h3.7V141.7z"/>
	<path id="XMLID_24_" d="M106.8,129.9v10.3c0,1.1-0.2,2-0.5,2.8c-0.3,0.7-0.8,1.3-1.3,1.8c-0.6,0.4-1.2,0.8-1.9,0.9
		s-1.5,0.3-2.3,0.3c-0.9,0-1.7-0.1-2.4-0.3s-1.3-0.5-1.8-0.9c-0.5-0.4-0.9-0.8-1.2-1.3c-0.3-0.5-0.5-1-0.6-1.6h3.4
		c0.1,0.5,0.4,0.9,0.8,1.1c0.4,0.3,1,0.4,1.6,0.4c0.9,0,1.6-0.2,1.9-0.6c0.4-0.4,0.6-1,0.6-1.8v-1.4c-0.2,0.3-0.4,0.6-0.7,0.8
		c-0.3,0.2-0.6,0.4-0.9,0.6c-0.3,0.2-0.7,0.3-1,0.3c-0.4,0.1-0.7,0.1-1,0.1c-0.8,0-1.5-0.1-2.1-0.4c-0.6-0.3-1.2-0.6-1.7-1.1
		c-0.5-0.5-0.8-1.1-1.1-1.8c-0.3-0.7-0.4-1.6-0.4-2.5c0-0.9,0.1-1.8,0.4-2.5c0.3-0.7,0.6-1.3,1.1-1.8s1-0.9,1.7-1.1s1.3-0.4,2.1-0.4
		c0.3,0,0.7,0,1,0.1c0.4,0.1,0.7,0.2,1,0.3c0.3,0.2,0.6,0.3,0.9,0.6c0.3,0.2,0.5,0.5,0.7,0.8v-1.6H106.8z M99.7,132.6
		c-0.3,0.1-0.6,0.3-0.8,0.5c-0.2,0.3-0.4,0.6-0.6,0.9c-0.1,0.4-0.2,0.8-0.2,1.4c0,0.5,0.1,1,0.2,1.4c0.1,0.4,0.3,0.7,0.6,0.9
		c0.2,0.3,0.5,0.4,0.8,0.6s0.7,0.2,1,0.2c0.4,0,0.7-0.1,1-0.2c0.3-0.1,0.6-0.3,0.8-0.5s0.4-0.5,0.6-0.9c0.1-0.4,0.2-0.9,0.2-1.4
		c0-0.6-0.1-1.1-0.2-1.5c-0.1-0.4-0.3-0.7-0.6-0.9c-0.2-0.2-0.5-0.4-0.8-0.5c-0.3-0.1-0.7-0.1-1-0.1
		C100.3,132.5,100,132.5,99.7,132.6z"/>
	<path id="XMLID_28_" d="M114.6,130.8c0.2-0.2,0.5-0.4,0.8-0.6c0.3-0.2,0.7-0.3,1-0.4c0.4-0.1,0.8-0.2,1.3-0.2
		c0.8,0,1.4,0.1,1.9,0.3c0.5,0.2,0.9,0.5,1.2,1c0.3,0.4,0.5,0.9,0.7,1.6s0.2,1.3,0.2,2.1v7.1h-3.6v-6.2c0-0.4,0-0.8,0-1.2
		c0-0.4-0.1-0.7-0.2-1c-0.1-0.3-0.3-0.5-0.5-0.7c-0.2-0.2-0.6-0.2-1-0.2c-0.8,0-1.3,0.3-1.7,0.8c-0.3,0.5-0.5,1.3-0.5,2.4v6.1h-3.6
		v-11.8h3.6v1.6C114.2,131.3,114.4,131,114.6,130.8z"/>
	<path id="XMLID_30_" d="M125.1,137.8h4.1v3.9h-4.1V137.8z"/>
</g>
</svg>
